<svg xmlns="http://www.w3.org/2000/svg" data-name="Layer 2" viewBox="0 0 64 64"><path d="M4.1 53.2L5.5 53l3.9-.3a28.3 28.3 0 0 1 12 2.6 27.8 27.8 0 0 1 7.8 5.4 1 1 0 0 0 1.4-1.4 29.8 29.8 0 0 0-8.3-5.8A30.3 30.3 0 0 0 9.4 50.8L5.2 51l-1.3.2a1 1 0 0 0 .3 2zM4.2 42.8a40 40 0 0 1 21.3 3.4A40.3 40.3 0 0 1 42 60.6a1 1 0 0 0 .8.4l.6-.2a1 1 0 0 0 .3-1.4A42.3 42.3 0 0 0 26.4 44.4 42 42 0 0 0 4 40.8a1 1 0 0 0 .2 2z"/><path d="M60,33.1a1,1,0,1,0,.2-2L57,30.8V23.1l2.4,1.8.6.2a1,1,0,0,0,.6-1.8l-11-8a1,1,0,0,0-1.2,0l-11,8a1,1,0,1,0,1.2,1.6L41,23.1v9.6a49.6,49.6,0,0,0-7.6,2.8l-1.4.7-1.4-.7A49.8,49.8,0,0,0,17,31.3V24a10.5,10.5,0,1,0-2-.1v7.2a52.3,52.3,0,0,0-11.5,0,1,1,0,0,0,.2,2,49,49,0,0,1,26,4.1A49.6,49.6,0,0,1,53.3,60.7a1,1,0,0,0,.9.6h.4a1,1,0,0,0,.5-1.3A53.1,53.1,0,0,0,51.1,53a30.2,30.2,0,0,1,7.4,0l1.5.2h.1a1,1,0,0,0,.1-2L58.8,51a32.1,32.1,0,0,0-8.9.1,52.3,52.3,0,0,0-6.2-6.9,40.6,40.6,0,0,1,16.2-1.4,1,1,0,1,0,.2-2,42.5,42.5,0,0,0-18.2,1.8,49.6,49.6,0,0,0-7.8-5.4h.1A49,49,0,0,1,60,33.1Zm-9-2.2-4,.4V27h4Zm-8-9.3,6-4.4,6,4.4v9.2H53V26a1,1,0,0,0-1-1H46a1,1,0,0,0-1,1v5.7l-2,.4ZM8,13.5A8.5,8.5,0,1,1,17,22V19l4.4-2.1a1,1,0,1,0-.9-1.8L17,16.8V10a1,1,0,0,0-2,0v3.9l-3.7-1.8a1,1,0,1,0-.9,1.8L15,16.1v5.8A8.5,8.5,0,0,1,8,13.5Z"/></svg>