<svg xmlns="http://www.w3.org/2000/svg" enable-background="new 0 0 64 64" viewBox="0 0 64 64"><path d="M32,47c12.7,0,23-10.3,23-23C55,11.3,44.7,1,32,1c-1.7,0-3.3,0.2-4.9,0.5c-0.5,0.1-0.9,0.7-0.8,1.2c0.1,0.5,0.6,0.9,1.2,0.8
	C29,3.2,30.5,3,32,3c2.5,0,4.8,0.4,7,1.2l0,2.6C39,6.9,38.9,7,38.8,7c-0.9,0-1.6,0.5-1.9,1c0,0,0,0.1-0.1,0.1l-1.2,2.4
	c-0.4,0.9-0.4,1.9,0,2.8l0.9,1.9c0.6,1.1,1.6,1.8,2.8,1.8h1.4c1.1,0,2.2-0.7,2.8-1.8l0.1-0.1c0.2-0.3,0.5-0.5,0.9-0.6
	c0.2,0,0.6,0,0.9,0.3l1.3,1.3c0.6,0.6,1.3,0.9,2.2,0.9h2.9c0.7,1.9,1.1,3.9,1.2,6h-1.4c-0.7,0-1.4-0.3-1.9-0.8l-1.8-1.8
	c-0.9-0.9-2.1-1.4-3.3-1.4h-4.9c-1.2,0-2.4,0.5-3.3,1.4l-1.8,1.8c-0.9,0.9-1.4,2.1-1.4,3.3v0.7c0,0.6,0.4,1,1,1s1-0.4,1-1v-0.7
	c0-0.7,0.3-1.4,0.8-1.9l1.8-1.8c0.5-0.5,1.2-0.8,1.9-0.8h4.9c0.7,0,1.4,0.3,1.9,0.8l1.8,1.8c0.9,0.9,2.1,1.4,3.3,1.4h1.4
	c-0.3,6.1-3.2,11.5-7.6,15.2l-2.9-1.9c-0.8-0.5-1.2-1.3-1.2-2.3c0-1.5-0.8-3-2.1-3.9l-2.7-1.8c-0.3-0.2-0.6-0.5-0.8-0.8
	c-0.3-0.5-0.9-0.6-1.4-0.3c-0.5,0.3-0.6,0.9-0.3,1.4c0.4,0.5,0.8,1,1.4,1.3l2.7,1.8c0.8,0.5,1.3,1.4,1.3,2.3c0,1.6,0.8,3.1,2.1,3.9
	l2.3,1.5C40.3,43.7,36.3,45,32,45c-2.6,0-5-0.5-7.3-1.3V39c0-1-0.3-1.8-1-2.5L21.2,34c-0.3-0.4-0.4-0.8-0.4-1.1v-1.4
	c0-1.4-0.8-2.7-2-3.2L17,27.4c-0.2-0.1-0.4-0.3-0.6-0.6l-0.8-1.6c-0.3-0.5-0.1-1.2,0.3-1.7l0.8-0.8c0.4-0.4,0.4-1,0-1.4
	c-0.4-0.4-1-0.4-1.4,0L14.5,22c-1.1,1.1-1.4,2.8-0.7,4.1l0.8,1.5c0.3,0.8,0.9,1.4,1.6,1.6l1.8,0.9c0.5,0.2,0.8,0.7,0.8,1.4v1.4
	c0,0.8,0.3,1.7,0.9,2.4c0,0,0,0.1,0.1,0.1l2.5,2.5c0.3,0.3,0.4,0.6,0.4,1.1v3.8C15.8,39.4,11,32.2,11,24c0-4.5,1.5-8.8,4-12.3v1.2
	c0,0.8,0.3,1.7,0.9,2.4c0,0,0,0.1,0.1,0.1l0.5,0.5c0.3,0.3,0.4,0.6,0.4,1.1v1.9c0,0.6,0.4,1,1,1s1-0.4,1-1V17c0-1-0.3-1.8-1-2.5
	L17.4,14c-0.3-0.4-0.4-0.8-0.4-1.1V9.3c1.9-1.9,4.2-3.6,6.8-4.7c0.5-0.2,0.7-0.8,0.5-1.3c-0.2-0.5-0.8-0.7-1.3-0.5
	C14.5,6.4,9,14.7,9,24C9,36.7,19.3,47,32,47z M48.9,15c-0.3,0-0.6-0.1-0.8-0.3l-1.3-1.3c-0.7-0.7-1.6-1-2.6-0.9
	c-1,0.1-1.9,0.7-2.4,1.6l-0.1,0.2c-0.2,0.3-0.6,0.7-1,0.7h-1.4c-0.5,0-0.8-0.2-1-0.6l-0.9-1.9c-0.2-0.3-0.2-0.7,0-1l1.2-2.3
	c0-0.1,0.1-0.1,0.2-0.1C40,9,41,8,41,6.8V5.1c4.4,2.1,7.9,5.6,9.9,9.9H48.9z"/><path d="M57 24c0 2.6-.4 5.2-1.2 7.7-.2.5.1 1.1.6 1.3.1 0 .2 0 .3 0 .4 0 .8-.3 1-.7.9-2.7 1.3-5.4 1.3-8.3 0-6.9-2.6-13.4-7.2-18.4l.9-.9c.4-.4.4-1 0-1.4-.4-.4-1-.4-1.4 0l-1.6 1.6c-.2.2-.3.5-.3.7 0 .3.1.5.3.7C54.4 11 57 17.3 57 24zM26 61h-2.3c-.6 0-1 .4-1 1s.4 1 1 1H26c.6 0 1-.4 1-1S26.6 61 26 61z"/><path d="M52 61h-3.1c-.5-2.3-2.5-4-4.9-4h-5.6c-1.6-1.7-2.7-3.8-3.2-6.2 8.8-1.1 16.5-6.3 20.7-14.3.3-.5.1-1.1-.4-1.3-.5-.3-1.1-.1-1.3.4C49.9 43.9 41.4 49 32 49c-6.7 0-13-2.6-17.7-7.3-.4-.4-1-.4-1.4 0l-1.6 1.6c-.4.4-.4 1 0 1.4.2.2.5.3.7.3s.5-.1.7-.3l.9-.9c4.2 3.9 9.5 6.3 15.1 7-.5 2.4-1.6 4.5-3.2 6.2H20c-2.4 0-4.4 1.7-4.9 4H8c-.6 0-1 .4-1 1s.4 1 1 1h11.9c.6 0 1-.4 1-1s-.4-1-1-1h-2.8c.4-1.2 1.5-2 2.8-2h24c1.3 0 2.4.8 2.8 2H29.9c-.6 0-1 .4-1 1s.4 1 1 1H52c.6 0 1-.4 1-1S52.6 61 52 61zM28.2 57c1.3-1.8 2.1-3.8 2.6-6 .4 0 .8 0 1.3 0 .4 0 .8 0 1.3 0 .4 2.2 1.3 4.3 2.6 6H28.2zM4 61H2c-.6 0-1 .4-1 1s.4 1 1 1h2c.6 0 1-.4 1-1S4.6 61 4 61zM62 61h-6c-.6 0-1 .4-1 1s.4 1 1 1h6c.6 0 1-.4 1-1S62.6 61 62 61z"/></svg>