<svg xmlns="http://www.w3.org/2000/svg" id="Layer_1" viewBox="0 0 32 32"><path d="M19.5 24h-11c-.3 0-.5-.2-.5-.5v-8c0-.3.2-.5.5-.5h11c.3 0 .5.2.5.5v8c0 .3-.2.5-.5.5zM9 23h10v-7H9v7zM12.8 12.9c-.8 0-1.5-.3-2.2-.8l-.2-.1c-.3-.3-.8-.4-1.2-.3l-1.6.3c-.7.1-1.4-.2-1.7-.9-.3-.7-.1-1.4.6-1.8 0 0 .1 0 .1-.1l.5-.2c1-.3 2-.7 2.9-1.3V7c-.8 0-1.5-.7-1.5-1.5v-1c0-.8.7-1.5 1.5-1.5h12c.8 0 1.5.7 1.5 1.5v1c0 .8-.7 1.5-1.5 1.5v.7c.9.6 1.9 1 2.9 1.3l.6.2s.1 0 .1.1c.6.4.8 1.1.6 1.8-.3.7-1 1-1.7.9l-1.6-.3c-.4-.1-.9 0-1.2.3l-.2.1c-1.1.9-2.7 1-3.9.3l-.2-.1c-.8-.4-1.7-.4-2.5 0l-.2.1c-.7.3-1.3.5-1.9.5zm-3.3-2.3c.6 0 1.1.2 1.6.5l.2.1c.8.6 1.9.7 2.8.2l.2-.1c1.1-.6 2.4-.6 3.5 0l.2.1c.9.5 2 .4 2.8-.2l.2-.1c.6-.5 1.3-.6 2.1-.5l1.6.3c.4.1.5-.2.6-.3 0-.1.1-.4-.1-.6h-.6c-1.2-.4-2.3-.9-3.4-1.6-.1-.1-.2-.2-.2-.4V7c0-.6.4-1 1-1 .3 0 .5-.2.5-.5v-1c0-.3-.2-.5-.5-.5H10c-.3 0-.5.2-.5.5v1c0 .3.2.5.5.5.6 0 1 .4 1 1v1c0 .2-.1.3-.2.4-1 .7-2.2 1.2-3.4 1.6l-.5.1c-.3.2-.2.5-.1.6 0 .1.2.4.6.3l1.6-.3c.2 0 .3-.1.5-.1z"/><path d="M21.5 29h-11C9.1 29 8 27.9 8 26.5V11.3c0-.2.2-.4.4-.5l.6-.1c.7-.1 1.5 0 2.1.5l.2.1c.8.6 1.9.7 2.8.2l.2-.1c1.1-.6 2.4-.6 3.5 0l.2.1c.9.5 2 .4 2.8-.2l.2-.1c.6-.5 1.3-.6 2.1-.5l.6.1c.2 0 .4.3.4.5v15.2c-.1 1.4-1.2 2.5-2.6 2.5zM9 11.7v14.8c0 .8.7 1.5 1.5 1.5h11c.8 0 1.5-.7 1.5-1.5V11.7h-.2c-.4-.1-.9 0-1.2.3l-.2.1c-1.1.9-2.7 1-3.9.3l-.2-.1c-.8-.4-1.7-.4-2.5 0l-.2.1c-1.3.7-2.8.6-3.9-.3l-.3-.1c-.3-.3-.8-.4-1.2-.3H9zM10 7h12v1H10z"/></svg>