<svg xmlns="http://www.w3.org/2000/svg" viewBox="0 0 64 64"><path d="M11,50H8a4,4,0,0,1-4-4V38a4,4,0,0,1,4-4h3a1,1,0,0,1,1,1V49A1,1,0,0,1,11,50ZM8,36a2,2,0,0,0-2,2v8a2,2,0,0,0,2,2h2V36Z"/><path d="M14 53a4 4 0 0 1-4-4V35a4 4 0 0 1 8 0V49A4 4 0 0 1 14 53zm0-20a2 2 0 0 0-2 2V49a2 2 0 0 0 4 0V35A2 2 0 0 0 14 33zM56 50H53a1 1 0 0 1-1-1V35a1 1 0 0 1 1-1h3a4 4 0 0 1 4 4v8A4 4 0 0 1 56 50zm-2-2h2a2 2 0 0 0 2-2V38a2 2 0 0 0-2-2H54z"/><path d="M50 53a4 4 0 0 1-4-4V35a4 4 0 0 1 8 0V49A4 4 0 0 1 50 53zm0-20a2 2 0 0 0-2 2V49a2 2 0 0 0 4 0V35A2 2 0 0 0 50 33zM34 60H30a3 3 0 0 1 0-6h4a3 3 0 0 1 0 6zm-4-4a1 1 0 0 0 0 2h4a1 1 0 0 0 0-2z"/><path d="M50 58H36a1 1 0 0 1 0-2H50a5 5 0 0 0 5-5V49a1 1 0 0 1 2 0v2A7 7 0 0 1 50 58zM55 36a1 1 0 0 1-1-1V28a21.39 21.39 0 0 0-.19-2.87 1 1 0 1 1 2-.26A23.51 23.51 0 0 1 56 28v7A1 1 0 0 1 55 36zM9 36a1 1 0 0 1-1-1V28a23.51 23.51 0 0 1 .21-3.13 1 1 0 1 1 2 .26A21.39 21.39 0 0 0 10 28v7A1 1 0 0 1 9 36z"/><path d="M54.8,26a8,8,0,0,1-7.24-4.85,17,17,0,0,0-31.19.18A7.53,7.53,0,0,1,9.49,26H9.2a1,1,0,0,1-1-1.13,24,24,0,0,1,47.58,0,1,1,0,0,1-1,1.13ZM32,6A22,22,0,0,0,10.38,23.92a5.61,5.61,0,0,0,4.15-3.38,19,19,0,0,1,30.91-6,19.17,19.17,0,0,1,4,5.78,6.09,6.09,0,0,0,4.22,3.53,22.11,22.11,0,0,0-6.06-11.42A21.83,21.83,0,0,0,32,6Z"/><path d="M30 32H25a1 1 0 0 1-1-1V30a1 1 0 0 1 .29-.71l4.38-4.38A1.12 1.12 0 0 0 27.88 23h-.76A1.12 1.12 0 0 0 26 24.12V25a1 1 0 0 1-2 0v-.88A3.12 3.12 0 0 1 27.12 21h.76A3.12 3.12 0 0 1 31 24.12a3.09 3.09 0 0 1-.91 2.21L26.41 30H30a1 1 0 0 1 0 2zM39 28H37a4 4 0 0 1-4-4V22a1 1 0 0 1 2 0v2a2 2 0 0 0 2 2h1V22a1 1 0 0 1 2 0v5A1 1 0 0 1 39 28z"/><path d="M39,32a1,1,0,0,1-1-1V27a1,1,0,0,1,2,0v4A1,1,0,0,1,39,32Z"/><path d="M32,40A13,13,0,1,1,45,27a1,1,0,0,1-2,0A11,11,0,1,0,32,38a1,1,0,0,1,0,2Z"/><path d="M31,43a1,1,0,0,1-.71-.29,1,1,0,0,1,0-1.42L32.59,39l-2.3-2.29a1,1,0,0,1,1.42-1.42l3,3a1,1,0,0,1,0,1.42l-3,3A1,1,0,0,1,31,43Z"/></svg>